# xmcd CD database file
#
# Track frame offsets:
#	183
#	11973
#	30145
#	46020
#	59443
#	67083
#	83733
#	101188
#	115850
#	129903
#	141260
#	153753
#	166763
#	177770
#	191293
#	206850
#
# Disc length: 3001 seconds
#
# Revision: 4
# Processed by: cddbd v1.5.2PL0 Copyright (c) Steve Scherf et al.
# Submitted via: CDex 1.79
#
DISCID=ce0bb710
DTITLE=Sarah Vaughan - 16 Great Songs
DYEAR=1988
DGENRE=Jazz
TTITLE0=Whatever Lola Wants
TTITLE1=Lullaby Of Birdland
TTITLE2=Bewitched
TTITLE3=My Funny Valentine
TTITLE4=I Cried For You
TTITLE5=It Never Entered My Mind
TTITLE6=A Foggy Day
TTITLE7=All Of Me
TTITLE8=Pennies From Heaven
TTITLE9=If I Knew Then (What I Know Now)
TTITLE10=Prelude To A Kiss
TTITLE11=Summertime
TTITLE12=Let's Call The Whole Thing Off
TTITLE13=You Hit The Spot
TTITLE14=But Not For Me
TTITLE15=Someone To Watch Over Me
EXTD=YEAR: 1988
EXTT0=
EXTT1=
EXTT2=
EXTT3=
EXTT4=
EXTT5=
EXTT6=
EXTT7=
EXTT8=
EXTT9=
EXTT10=
EXTT11=
EXTT12=
EXTT13=
EXTT14=
EXTT15=
PLAYORDER=
